<svg id="visual" viewBox="0 0 960 540" width="960" height="540" xmlns="http://www.w3.org/2000/svg" xmlns:xlink="http://www.w3.org/1999/xlink" version="1.1"><rect x="0" y="0" width="960" height="540" fill="#ffffff"></rect><path d="M0 364L22.8 357.3C45.7 350.7 91.3 337.3 137 335C182.7 332.7 228.3 341.3 274 344.3C319.7 347.3 365.3 344.7 411.2 345C457 345.3 503 348.7 548.8 353.2C594.7 357.7 640.3 363.3 686 361.8C731.7 360.3 777.3 351.7 823 354.3C868.7 357 914.3 371 937.2 378L960 385L960 541L937.2 541C914.3 541 868.7 541 823 541C777.3 541 731.7 541 686 541C640.3 541 594.7 541 548.8 541C503 541 457 541 411.2 541C365.3 541 319.7 541 274 541C228.3 541 182.7 541 137 541C91.3 541 45.7 541 22.8 541L0 541Z" fill="#e7dfea"></path><path d="M0 411L22.8 407.3C45.7 403.7 91.3 396.3 137 390.7C182.7 385 228.3 381 274 380.8C319.7 380.7 365.3 384.3 411.2 391.5C457 398.7 503 409.3 548.8 412.8C594.7 416.3 640.3 412.7 686 410.8C731.7 409 777.3 409 823 406.2C868.7 403.3 914.3 397.7 937.2 394.8L960 392L960 541L937.2 541C914.3 541 868.7 541 823 541C777.3 541 731.7 541 686 541C640.3 541 594.7 541 548.8 541C503 541 457 541 411.2 541C365.3 541 319.7 541 274 541C228.3 541 182.7 541 137 541C91.3 541 45.7 541 22.8 541L0 541Z" fill="#dfe3f0"></path><path d="M0 459L22.8 459.2C45.7 459.3 91.3 459.7 137 456.5C182.7 453.3 228.3 446.7 274 445.3C319.7 444 365.3 448 411.2 450.3C457 452.7 503 453.3 548.8 452.8C594.7 452.3 640.3 450.7 686 446.7C731.7 442.7 777.3 436.3 823 428C868.7 419.7 914.3 409.3 937.2 404.2L960 399L960 541L937.2 541C914.3 541 868.7 541 823 541C777.3 541 731.7 541 686 541C640.3 541 594.7 541 548.8 541C503 541 457 541 411.2 541C365.3 541 319.7 541 274 541C228.3 541 182.7 541 137 541C91.3 541 45.7 541 22.8 541L0 541Z" fill="#d6e7f1"></path><path d="M0 460L22.8 461.2C45.7 462.3 91.3 464.7 137 467.8C182.7 471 228.3 475 274 477.2C319.7 479.3 365.3 479.7 411.2 473.8C457 468 503 456 548.8 448.8C594.7 441.7 640.3 439.3 686 441.7C731.7 444 777.3 451 823 458.2C868.7 465.3 914.3 472.7 937.2 476.3L960 480L960 541L937.2 541C914.3 541 868.7 541 823 541C777.3 541 731.7 541 686 541C640.3 541 594.7 541 548.8 541C503 541 457 541 411.2 541C365.3 541 319.7 541 274 541C228.3 541 182.7 541 137 541C91.3 541 45.7 541 22.8 541L0 541Z" fill="#d2eaec"></path><path d="M0 506L22.8 504.7C45.7 503.3 91.3 500.7 137 498.8C182.7 497 228.3 496 274 497.2C319.7 498.3 365.3 501.7 411.2 502.8C457 504 503 503 548.8 500.8C594.7 498.7 640.3 495.3 686 496.5C731.7 497.7 777.3 503.3 823 503.2C868.7 503 914.3 497 937.2 494L960 491L960 541L937.2 541C914.3 541 868.7 541 823 541C777.3 541 731.7 541 686 541C640.3 541 594.7 541 548.8 541C503 541 457 541 411.2 541C365.3 541 319.7 541 274 541C228.3 541 182.7 541 137 541C91.3 541 45.7 541 22.8 541L0 541Z" fill="#d6ece3"></path></svg>