<?xml version="1.0" standalone="no"?>
<svg xmlns:xlink="http://www.w3.org/1999/xlink" id="wave" style="transform:rotate(0deg); transition: 0.3s" viewBox="0 0 1440 420" version="1.1" xmlns="http://www.w3.org/2000/svg"><defs><linearGradient id="sw-gradient-0" x1="0" x2="0" y1="1" y2="0"><stop stop-color="rgba(136, 97, 154, 1)" offset="0%"/><stop stop-color="rgba(231, 223, 234, 1)" offset="100%"/></linearGradient></defs><path style="transform:translate(0, 0px); opacity:1" fill="url(#sw-gradient-0)" d="M0,252L60,238C120,224,240,196,360,182C480,168,600,168,720,154C840,140,960,112,1080,119C1200,126,1320,168,1440,210C1560,252,1680,294,1800,301C1920,308,2040,280,2160,245C2280,210,2400,168,2520,147C2640,126,2760,126,2880,161C3000,196,3120,266,3240,308C3360,350,3480,364,3600,336C3720,308,3840,238,3960,238C4080,238,4200,308,4320,301C4440,294,4560,210,4680,196C4800,182,4920,238,5040,252C5160,266,5280,238,5400,224C5520,210,5640,210,5760,210C5880,210,6000,210,6120,203C6240,196,6360,182,6480,196C6600,210,6720,252,6840,273C6960,294,7080,294,7200,252C7320,210,7440,126,7560,133C7680,140,7800,238,7920,280C8040,322,8160,308,8280,273C8400,238,8520,182,8580,154L8640,126L8640,420L8580,420C8520,420,8400,420,8280,420C8160,420,8040,420,7920,420C7800,420,7680,420,7560,420C7440,420,7320,420,7200,420C7080,420,6960,420,6840,420C6720,420,6600,420,6480,420C6360,420,6240,420,6120,420C6000,420,5880,420,5760,420C5640,420,5520,420,5400,420C5280,420,5160,420,5040,420C4920,420,4800,420,4680,420C4560,420,4440,420,4320,420C4200,420,4080,420,3960,420C3840,420,3720,420,3600,420C3480,420,3360,420,3240,420C3120,420,3000,420,2880,420C2760,420,2640,420,2520,420C2400,420,2280,420,2160,420C2040,420,1920,420,1800,420C1680,420,1560,420,1440,420C1320,420,1200,420,1080,420C960,420,840,420,720,420C600,420,480,420,360,420C240,420,120,420,60,420L0,420Z"/><defs><linearGradient id="sw-gradient-1" x1="0" x2="0" y1="1" y2="0"><stop stop-color="rgba(51, 164, 116, 1)" offset="0%"/><stop stop-color="rgba(214, 236, 227, 1)" offset="100%"/></linearGradient></defs><path style="transform:translate(0, 50px); opacity:0.9" fill="url(#sw-gradient-1)" d="M0,210L60,238C120,266,240,322,360,301C480,280,600,182,720,147C840,112,960,140,1080,154C1200,168,1320,168,1440,161C1560,154,1680,140,1800,168C1920,196,2040,266,2160,266C2280,266,2400,196,2520,147C2640,98,2760,70,2880,112C3000,154,3120,266,3240,322C3360,378,3480,378,3600,378C3720,378,3840,378,3960,371C4080,364,4200,350,4320,329C4440,308,4560,280,4680,238C4800,196,4920,140,5040,133C5160,126,5280,168,5400,161C5520,154,5640,98,5760,84C5880,70,6000,98,6120,154C6240,210,6360,294,6480,322C6600,350,6720,322,6840,322C6960,322,7080,350,7200,322C7320,294,7440,210,7560,210C7680,210,7800,294,7920,322C8040,350,8160,322,8280,280C8400,238,8520,182,8580,154L8640,126L8640,420L8580,420C8520,420,8400,420,8280,420C8160,420,8040,420,7920,420C7800,420,7680,420,7560,420C7440,420,7320,420,7200,420C7080,420,6960,420,6840,420C6720,420,6600,420,6480,420C6360,420,6240,420,6120,420C6000,420,5880,420,5760,420C5640,420,5520,420,5400,420C5280,420,5160,420,5040,420C4920,420,4800,420,4680,420C4560,420,4440,420,4320,420C4200,420,4080,420,3960,420C3840,420,3720,420,3600,420C3480,420,3360,420,3240,420C3120,420,3000,420,2880,420C2760,420,2640,420,2520,420C2400,420,2280,420,2160,420C2040,420,1920,420,1800,420C1680,420,1560,420,1440,420C1320,420,1200,420,1080,420C960,420,840,420,720,420C600,420,480,420,360,420C240,420,120,420,60,420L0,420Z"/><defs><linearGradient id="sw-gradient-2" x1="0" x2="0" y1="1" y2="0"><stop stop-color="rgba(66, 152, 180, 1)" offset="0%"/><stop stop-color="rgba(217, 234, 240, 1)" offset="100%"/></linearGradient></defs><path style="transform:translate(0, 100px); opacity:0.8" fill="url(#sw-gradient-2)" d="M0,84L60,98C120,112,240,140,360,133C480,126,600,84,720,112C840,140,960,238,1080,294C1200,350,1320,364,1440,357C1560,350,1680,322,1800,301C1920,280,2040,266,2160,224C2280,182,2400,112,2520,119C2640,126,2760,210,2880,245C3000,280,3120,266,3240,266C3360,266,3480,280,3600,280C3720,280,3840,266,3960,231C4080,196,4200,140,4320,133C4440,126,4560,168,4680,182C4800,196,4920,182,5040,175C5160,168,5280,168,5400,168C5520,168,5640,168,5760,168C5880,168,6000,168,6120,147C6240,126,6360,84,6480,84C6600,84,6720,126,6840,126C6960,126,7080,84,7200,98C7320,112,7440,182,7560,238C7680,294,7800,336,7920,357C8040,378,8160,378,8280,329C8400,280,8520,182,8580,133L8640,84L8640,420L8580,420C8520,420,8400,420,8280,420C8160,420,8040,420,7920,420C7800,420,7680,420,7560,420C7440,420,7320,420,7200,420C7080,420,6960,420,6840,420C6720,420,6600,420,6480,420C6360,420,6240,420,6120,420C6000,420,5880,420,5760,420C5640,420,5520,420,5400,420C5280,420,5160,420,5040,420C4920,420,4800,420,4680,420C4560,420,4440,420,4320,420C4200,420,4080,420,3960,420C3840,420,3720,420,3600,420C3480,420,3360,420,3240,420C3120,420,3000,420,2880,420C2760,420,2640,420,2520,420C2400,420,2280,420,2160,420C2040,420,1920,420,1800,420C1680,420,1560,420,1440,420C1320,420,1200,420,1080,420C960,420,840,420,720,420C600,420,480,420,360,420C240,420,120,420,60,420L0,420Z"/><defs><linearGradient id="sw-gradient-3" x1="0" x2="0" y1="1" y2="0"><stop stop-color="rgba(228, 174, 58, 1)" offset="0%"/><stop stop-color="rgba(249, 238, 215, 1)" offset="100%"/></linearGradient></defs><path style="transform:translate(0, 150px); opacity:0.7" fill="url(#sw-gradient-3)" d="M0,210L60,196C120,182,240,154,360,154C480,154,600,182,720,196C840,210,960,210,1080,189C1200,168,1320,126,1440,126C1560,126,1680,168,1800,168C1920,168,2040,126,2160,140C2280,154,2400,224,2520,210C2640,196,2760,98,2880,105C3000,112,3120,224,3240,224C3360,224,3480,112,3600,56C3720,0,3840,0,3960,56C4080,112,4200,224,4320,273C4440,322,4560,308,4680,280C4800,252,4920,210,5040,217C5160,224,5280,280,5400,252C5520,224,5640,112,5760,56C5880,0,6000,0,6120,7C6240,14,6360,28,6480,77C6600,126,6720,210,6840,259C6960,308,7080,322,7200,329C7320,336,7440,336,7560,315C7680,294,7800,252,7920,217C8040,182,8160,154,8280,182C8400,210,8520,294,8580,336L8640,378L8640,420L8580,420C8520,420,8400,420,8280,420C8160,420,8040,420,7920,420C7800,420,7680,420,7560,420C7440,420,7320,420,7200,420C7080,420,6960,420,6840,420C6720,420,6600,420,6480,420C6360,420,6240,420,6120,420C6000,420,5880,420,5760,420C5640,420,5520,420,5400,420C5280,420,5160,420,5040,420C4920,420,4800,420,4680,420C4560,420,4440,420,4320,420C4200,420,4080,420,3960,420C3840,420,3720,420,3600,420C3480,420,3360,420,3240,420C3120,420,3000,420,2880,420C2760,420,2640,420,2520,420C2400,420,2280,420,2160,420C2040,420,1920,420,1800,420C1680,420,1560,420,1440,420C1320,420,1200,420,1080,420C960,420,840,420,720,420C600,420,480,420,360,420C240,420,120,420,60,420L0,420Z"/></svg>