<?xml version="1.0" standalone="no"?>
<svg xmlns:xlink="http://www.w3.org/1999/xlink" id="wave" style="transform:rotate(180deg); transition: 0.3s" viewBox="0 0 1440 180" version="1.1" xmlns="http://www.w3.org/2000/svg"><defs><linearGradient id="sw-gradient-0" x1="0" x2="0" y1="1" y2="0"><stop stop-color="rgba(228, 174, 58, 1)" offset="0%"/><stop stop-color="rgba(249, 238, 215, 1)" offset="100%"/></linearGradient></defs><path style="transform:translate(0, 0px); opacity:1" fill="url(#sw-gradient-0)" d="M0,90L40,93C80,96,160,102,240,102C320,102,400,96,480,102C560,108,640,126,720,129C800,132,880,120,960,114C1040,108,1120,108,1200,93C1280,78,1360,48,1440,48C1520,48,1600,78,1680,81C1760,84,1840,60,1920,69C2000,78,2080,120,2160,138C2240,156,2320,150,2400,138C2480,126,2560,108,2640,90C2720,72,2800,54,2880,42C2960,30,3040,24,3120,21C3200,18,3280,18,3360,30C3440,42,3520,66,3600,75C3680,84,3760,78,3840,69C3920,60,4000,48,4080,51C4160,54,4240,72,4320,66C4400,60,4480,30,4560,42C4640,54,4720,108,4800,108C4880,108,4960,54,5040,39C5120,24,5200,48,5280,66C5360,84,5440,96,5520,105C5600,114,5680,120,5720,123L5760,126L5760,180L5720,180C5680,180,5600,180,5520,180C5440,180,5360,180,5280,180C5200,180,5120,180,5040,180C4960,180,4880,180,4800,180C4720,180,4640,180,4560,180C4480,180,4400,180,4320,180C4240,180,4160,180,4080,180C4000,180,3920,180,3840,180C3760,180,3680,180,3600,180C3520,180,3440,180,3360,180C3280,180,3200,180,3120,180C3040,180,2960,180,2880,180C2800,180,2720,180,2640,180C2560,180,2480,180,2400,180C2320,180,2240,180,2160,180C2080,180,2000,180,1920,180C1840,180,1760,180,1680,180C1600,180,1520,180,1440,180C1360,180,1280,180,1200,180C1120,180,1040,180,960,180C880,180,800,180,720,180C640,180,560,180,480,180C400,180,320,180,240,180C160,180,80,180,40,180L0,180Z"/></svg>